P2
80
60
255
183 234 47 58 57 182 147 15 229 161 238 17 223 81 115 175 106 190 100 52 89 20 24 179 145 131 214 157 22 131 254 143 56 6 10 205 62 33 213 240 51 155 192 69 55 252 24 91 236 124 96 69 103 118 218 8 68 182 237 193 54 79 217 247 185 79 56 157 77 240 212 76 195 179 78 37 28 241 22 235 
49 0 63 25 106 132 27 227 111 13 68 191 65 103 160 246 206 226 52 210 167 147 105 91 174 109 9 173 66 180 112 105 91 71 124 185 41 71 182 116 166 145 45 216 159 153 145 90 190 21 6 22 6 10 45 81 74 167 233 155 27 136 91 255 185 194 149 218 107 85 144 191 227 107 204 254 12 254 53 58 
212 205 140 131 152 221 157 168 219 9 255 226 35 97 220 163 137 187 57 172 228 14 196 117 21 213 129 104 248 242 213 74 109 142 123 115 11 129 204 68 239 178 249 85 48 252 147 244 109 28 6 85 3 17 106 14 100 135 55 81 7 195 92 96 129 140 53 211 63 148 229 7 90 234 142 103 18 229 232 226 
25 104 63 209 132 180 166 175 8 207 242 0 205 18 45 54 140 17 12 200 177 159 219 7 250 70 187 14 46 162 165 108 76 37 178 230 205 199 49 238 114 30 6 62 14 92 209 30 233 186 91 208 30 202 207 165 141 50 64 67 204 82 236 137 172 78 215 162 188 8 35 192 93 126 184 0 218 18 177 246 
5 8 225 77 39 244 50 195 188 199 156 87 95 27 33 149 42 208 52 66 111 1 145 221 152 252 10 251 197 210 202 229 137 250 132 25 109 123 14 14 144 53 251 207 8 171 153 231 107 241 229 29 10 21 243 128 96 176 62 68 46 242 116 245 208 211 46 116 53 195 20 71 24 122 250 192 221 80 108 106 
164 145 130 28 214 136 120 113 126 0 216 148 87 95 219 211 138 242 63 193 175 126 223 90 232 206 49 217 147 178 15 199 17 4 94 201 46 20 17 159 156 32 2 223 13 59 37 239 90 40 144 172 82 187 228 88 153 42 136 49 33 217 64 82 190 31 157 65 82 132 197 186 16 250 19 49 94 139 21 146 
205 167 45 229 162 187 184 88 26 250 209 187 16 218 105 84 99 11 188 203 228 226 109 51 129 222 162 244 53 212 166 21 47 55 127 101 203 8 24 7 187 220 90 227 249 143 207 109 252 15 74 90 169 205 3 174 138 77 192 173 190 87 124 42 51 76 9 190 158 21 61 92 177 59 21 195 19 154 101 84 
43 238 118 2 193 200 153 41 30 194 209 8 234 240 198 231 95 5 217 210 145 8 73 32 82 155 198 80 75 63 227 159 185 44 0 246 78 42 10 153 199 249 186 32 157 186 166 56 106 238 207 178 113 108 11 87 211 246 221 2 232 192 53 140 70 146 157 246 238 233 70 103 35 167 134 107 107 197 62 251 
34 41 131 87 189 157 252 84 39 182 240 154 127 207 221 130 170 46 201 0 252 186 169 120 59 220 219 140 114 12 49 80 19 154 14 126 238 33 15 12 111 40 203 188 189 128 33 31 27 197 151 126 32 151 77 62 68 9 251 52 57 178 135 98 145 1 163 178 65 52 10 21 106 135 191 155 248 18 227 252 
173 71 73 172 43 38 210 197 203 103 41 97 124 160 202 246 103 116 162 17 184 249 124 77 150 38 103 35 212 227 153 23 226 48 71 185 112 232 247 3 79 147 203 142 6 225 70 32 164 44 9 22 76 163 9 34 243 131 190 227 224 238 204 219 95 220 164 59 46 158 158 3 37 133 12 2 150 24 199 46 
125 253 0 133 152 112 129 138 67 15 34 191 179 212 40 154 54 186 209 118 17 100 240 105 200 2 181 27 68 254 19 36 84 229 68 97 24 17 241 214 201 148 125 133 95 235 236 206 157 228 237 208 253 86 136 67 249 9 230 96 57 109 198 59 36 135 1 44 72 172 196 175 50 108 217 75 26 78 155 246 
184 50 49 15 235 180 130 250 207 171 33 109 247 189 220 142 2 108 187 80 248 109 84 175 114 177 162 97 15 153 246 102 170 199 91 9 226 40 23 196 100 153 165 142 127 190 196 24 137 125 9 107 126 166 122 114 121 64 180 239 103 0 24 88 142 111 132 24 85 44 18 197 220 231 96 176 215 117 230 104 
173 130 228 162 76 19 187 11 164 159 47 104 175 140 136 83 215 208 124 60 90 27 218 70 30 89 100 70 122 249 98 68 104 145 93 17 176 78 149 118 128 179 155 103 246 42 168 210 26 237 34 120 203 178 203 90 26 184 41 57 156 149 158 161 34 99 172 9 112 185 240 134 88 236 73 141 208 50 181 63 
173 31 48 233 189 57 68 245 222 19 60 32 32 71 83 106 207 22 5 96 108 10 206 98 1 203 246 228 81 175 253 50 94 130 32 30 197 11 111 47 124 192 8 206 95 67 228 223 27 4 186 93 247 177 132 112 231 206 20 115 137 16 73 120 114 236 89 203 84 225 178 228 125 251 254 84 54 17 178 50 
190 16 221 98 111 225 52 162 0 195 203 24 92 53 30 129 232 51 179 88 149 93 122 177 112 114 120 66 61 182 37 253 135 173 22 212 185 194 101 32 181 78 85 34 111 118 193 40 3 117 193 215 211 197 23 13 31 159 222 241 166 111 241 149 193 149 160 195 130 19 25 107 84 155 30 45 155 118 113 133 
162 147 117 65 5 37 142 69 203 114 146 89 152 156 212 151 4 109 82 122 20 79 47 207 148 20 214 49 226 1 69 135 155 164 3 18 185 247 61 127 145 70 141 135 64 96 234 147 0 150 65 234 227 248 57 237 126 102 151 212 242 231 219 123 235 194 117 178 253 235 49 158 239 49 66 154 111 185 121 38 
78 245 175 225 52 0 26 231 56 55 212 106 166 202 246 147 40 174 5 136 155 242 155 12 105 155 98 98 255 89 221 205 207 199 131 85 98 132 171 43 253 207 201 77 90 9 124 207 231 172 238 95 39 54 3 113 145 125 218 163 147 253 31 207 19 145 176 77 20 29 15 232 218 176 37 6 46 139 223 121 
174 255 39 142 103 249 60 74 199 49 153 249 0 140 232 7 200 124 124 229 12 91 196 33 16 22 3 144 143 191 184 24 88 104 69 137 218 224 75 26 49 204 66 248 39 143 203 113 180 146 50 53 111 104 183 53 128 61 4 149 131 50 100 59 236 0 46 120 97 128 232 68 135 131 172 155 209 141 60 108 
60 240 17 21 214 50 218 84 71 158 141 100 7 57 72 96 171 125 36 132 93 38 150 82 248 132 36 238 72 199 5 62 225 216 30 80 35 37 226 123 215 248 146 195 238 203 91 255 230 30 222 63 74 75 139 242 213 227 107 81 185 3 195 133 130 45 27 18 29 37 34 5 129 75 248 91 115 250 87 53 
226 26 199 209 219 15 223 229 153 196 17 37 51 237 21 248 89 70 118 213 216 38 39 215 36 251 231 251 114 46 231 135 207 236 63 32 207 94 170 253 54 199 9 208 55 10 49 205 178 28 129 98 0 221 197 18 201 219 218 2 95 122 162 159 38 13 192 1 128 80 152 101 202 209 30 94 216 188 237 36 
78 204 53 193 137 161 58 33 21 69 246 130 10 216 254 217 38 204 5 119 187 46 58 47 88 130 18 198 155 181 8 64 185 150 202 112 52 108 91 102 68 14 161 35 113 28 234 39 221 191 220 75 190 124 91 106 140 153 219 101 93 145 169 231 243 32 161 144 254 82 212 217 10 51 162 96 160 134 196 240 
96 125 192 92 123 175 41 218 184 205 181 152 126 81 159 125 181 154 148 160 158 113 106 160 70 14 39 49 11 21 237 100 194 7 50 40 238 176 223 130 151 14 184 3 53 49 171 241 55 146 116 173 162 99 17 210 73 92 158 135 30 126 1 149 27 76 235 171 70 3 192 97 78 72 200 118 61 208 70 190 
74 12 179 54 134 181 134 71 36 219 139 105 137 70 183 119 78 133 128 214 88 165 101 5 183 140 252 157 188 109 254 38 221 226 213 78 206 43 42 12 98 3 244 19 172 160 140 53 223 82 58 32 113 61 205 249 255 187 168 98 108 222 222 85 207 141 194 107 145 202 129 250 89 151 56 159 51 244 11 157 
6 55 69 54 135 21 210 85 16 4 107 213 208 18 178 201 111 148 247 211 148 70 234 84 156 114 42 110 239 163 78 69 136 93 194 17 34 97 36 114 136 252 115 148 157 213 189 152 125 211 164 197 79 127 86 3 66 117 108 36 43 97 46 110 87 250 202 240 250 147 229 40 208 174 38 101 99 23 24 123 
231 175 200 215 15 80 56 142 68 14 231 233 186 85 47 198 51 228 189 149 200 193 85 167 143 209 43 0 137 178 78 9 100 56 163 193 143 36 238 212 29 133 112 43 251 77 150 105 247 156 53 215 19 51 219 73 179 156 176 107 17 136 102 4 138 211 188 169 54 196 18 95 90 248 144 179 28 126 85 189 
166 56 207 185 78 131 32 41 241 1 193 111 198 27 146 96 215 66 71 185 122 37 201 46 133 121 20 212 181 226 17 95 211 113 229 192 21 54 58 152 42 117 1 3 149 239 44 63 171 192 230 168 215 93 190 146 150 39 76 122 166 26 210 13 245 16 83 139 196 33 166 6 131 156 0 240 236 23 117 143 
98 151 28 108 57 25 111 94 86 167 205 85 250 70 30 205 154 173 208 220 202 22 199 125 23 222 243 84 50 86 3 119 15 93 187 184 84 62 108 243 178 73 7 213 157 173 92 169 229 25 235 171 175 152 230 78 82 47 202 22 145 194 26 94 183 175 189 179 26 180 125 31 116 147 39 4 164 241 202 235 
21 108 216 35 184 61 113 237 219 42 19 26 30 38 254 221 116 255 251 78 171 11 19 52 59 240 84 182 219 30 29 116 107 108 119 146 150 99 239 30 202 178 133 108 242 66 22 210 130 129 219 81 59 76 108 169 77 4 201 77 49 76 241 208 215 247 128 40 147 146 215 103 95 30 74 93 219 122 220 154 
121 101 85 156 12 115 246 113 170 173 185 9 123 48 123 32 84 50 47 207 21 85 203 215 255 190 224 113 122 133 107 51 201 242 82 139 51 9 18 66 23 240 34 150 120 157 131 103 119 85 0 234 60 134 168 123 210 100 232 249 117 227 235 48 207 122 153 219 167 61 209 177 128 194 81 8 172 92 209 131 
135 118 200 150 79 16 43 32 108 31 13 31 250 211 20 190 106 4 8 116 30 126 95 72 205 19 100 142 75 227 126 146 38 90 2 206 156 102 45 7 107 110 170 242 250 124 61 196 88 27 250 75 154 122 165 240 12 63 153 59 190 152 213 80 235 255 160 227 180 61 64 37 188 36 81 38 21 130 48 61 
18 9 75 236 85 154 127 84 179 110 92 89 191 140 211 149 210 152 23 248 12 7 42 239 88 39 49 55 239 148 12 209 220 133 166 138 2 129 141 184 36 240 75 135 107 18 253 111 238 206 171 72 191 238 228 131 243 52 24 3 46 206 52 14 48 183 0 238 227 104 191 168 106 122 136 88 175 158 238 175 
155 202 217 187 213 39 9 223 251 228 29 93 7 135 225 168 33 43 249 138 26 158 159 118 82 212 143 237 133 20 151 95 8 122 86 39 223 60 161 254 81 59 12 131 84 90 40 73 105 33 220 233 101 39 114 165 151 197 202 15 228 147 49 58 69 47 101 243 45 201 71 134 95 254 171 138 164 116 218 51 
87 78 42 9 4 21 147 215 55 151 229 100 28 199 126 226 176 210 123 103 115 135 128 220 37 158 80 142 24 125 182 249 145 233 62 69 186 41 68 239 166 24 202 38 230 175 170 88 46 115 146 112 139 99 84 72 174 204 4 196 191 146 107 40 73 107 74 26 183 137 234 208 221 54 130 254 21 226 235 224 
190 80 85 112 148 9 191 123 154 136 73 196 169 16 249 44 211 119 215 92 133 19 32 172 166 133 43 172 42 211 145 190 167 105 7 75 87 101 112 20 30 200 176 27 2 245 175 161 157 19 23 192 13 193 83 36 215 168 59 77 67 96 1 254 184 52 214 51 137 59 195 60 190 77 67 112 88 79 15 236 
161 119 28 98 183 70 107 2 93 71 247 3 81 130 212 85 52 68 54 198 217 221 217 74 169 97 75 19 179 227 152 219 216 186 218 247 150 65 35 169 249 153 78 54 42 237 45 51 28 185 159 163 227 139 250 71 34 207 101 184 34 20 136 189 3 82 36 102 147 185 4 104 69 120 218 49 199 12 113 78 
49 141 36 235 177 166 101 123 198 159 9 168 144 80 241 245 118 245 101 65 142 202 204 166 149 11 186 127 235 223 185 21 17 169 108 119 64 70 103 253 123 181 102 240 176 160 55 220 98 88 255 15 90 177 61 187 228 82 28 71 16 223 135 64 130 155 145 128 71 234 156 243 53 62 205 135 79 236 71 205 
116 164 147 248 171 110 143 42 45 52 10 20 12 87 216 114 107 188 175 114 57 254 127 250 16 162 193 181 200 232 51 126 65 166 132 151 212 185 116 42 254 130 230 166 184 251 92 102 254 209 109 44 12 31 166 235 198 42 94 101 218 189 250 22 6 135 39 242 27 23 121 119 46 226 11 136 114 218 129 164 
76 123 212 180 23 217 26 9 130 139 185 38 149 240 19 124 42 96 226 111 20 46 138 95 109 159 52 117 115 92 80 152 126 224 234 48 153 88 85 12 37 134 182 19 37 15 227 36 148 213 31 178 95 181 38 154 115 77 33 173 101 57 228 124 51 63 14 211 157 2 129 118 154 164 173 142 98 228 63 89 
47 147 249 128 132 57 123 23 67 242 111 27 104 231 25 190 172 209 144 217 87 138 60 158 67 170 79 19 168 212 190 2 44 31 67 192 172 24 215 86 79 248 49 139 79 100 197 82 13 97 201 24 227 224 177 110 52 104 181 154 64 109 211 136 56 185 215 153 18 131 219 215 163 158 212 5 114 77 148 23 
253 94 134 17 97 109 16 101 160 13 139 16 104 122 252 136 140 137 152 4 81 174 119 221 108 142 179 42 31 146 108 50 8 14 59 31 15 101 134 127 11 194 67 10 130 208 165 50 23 0 44 253 40 217 162 169 9 205 130 151 111 27 68 254 134 52 23 235 42 50 128 6 204 211 98 163 129 120 242 152 
70 114 146 165 95 112 58 182 81 91 18 163 78 161 3 252 79 188 66 226 129 227 246 102 4 224 240 202 125 171 241 57 244 37 7 119 136 139 119 249 116 27 181 236 221 103 245 185 254 220 200 112 24 245 69 166 192 166 81 68 238 114 105 203 111 181 136 131 26 159 150 32 90 92 236 82 144 247 109 208 
203 126 195 201 224 188 85 231 184 226 139 110 196 1 220 145 57 99 7 54 188 22 243 158 77 142 132 226 233 226 232 206 97 33 221 144 245 62 118 199 25 28 207 95 0 37 66 213 88 14 145 73 195 32 140 236 136 167 172 72 250 248 44 227 32 135 21 180 10 166 201 248 110 76 130 224 236 131 79 144 
64 33 105 7 205 209 119 95 39 13 179 222 151 39 111 137 49 55 84 219 83 154 35 250 140 188 150 235 88 159 232 79 72 162 118 25 9 10 4 197 194 206 36 151 101 32 65 86 80 58 193 6 215 237 212 40 49 107 91 247 64 220 116 43 188 39 43 180 68 138 190 1 201 104 20 66 222 223 203 39 
92 89 62 135 122 38 137 201 48 15 32 136 247 225 9 10 203 24 197 29 94 73 243 234 9 62 125 40 18 42 198 69 175 153 110 238 92 121 20 132 242 215 167 250 12 191 189 155 54 200 117 56 94 199 95 66 22 43 243 77 28 135 10 116 167 186 227 53 4 78 51 39 249 115 188 33 108 46 235 75 
44 234 120 253 121 5 52 8 175 195 50 200 59 218 83 197 0 27 135 165 57 95 123 84 203 192 111 49 138 165 200 213 235 34 202 234 174 35 7 144 241 236 255 214 60 104 111 190 245 205 211 94 204 11 153 133 150 144 130 119 27 222 188 60 77 107 29 252 123 94 38 238 239 144 31 87 123 103 247 27 
119 238 55 106 158 136 248 87 141 55 89 81 204 19 31 52 209 43 67 6 177 15 216 180 30 149 9 190 71 88 179 103 5 106 21 212 240 203 26 168 193 12 188 157 148 179 0 142 127 214 10 130 3 109 207 41 216 225 214 87 145 79 155 246 150 12 12 242 251 214 145 155 176 72 66 5 131 5 164 219 
163 67 75 15 216 22 166 137 81 17 18 63 103 125 122 47 40 218 157 130 202 168 81 134 148 124 3 201 219 2 251 225 112 96 226 67 19 113 2 204 111 108 211 95 11 99 61 42 196 42 34 9 70 26 168 142 5 58 193 38 54 64 120 224 80 255 126 85 130 173 116 52 181 141 124 234 138 123 135 238 
32 43 69 222 244 73 86 148 196 242 239 255 124 249 132 93 116 153 84 219 116 63 241 208 166 33 112 134 226 22 194 12 245 57 184 139 67 222 49 171 90 62 234 125 234 128 129 112 168 124 23 206 153 209 36 64 72 186 237 224 97 54 41 79 54 244 72 88 182 136 234 154 58 103 248 184 210 53 241 152 
139 50 68 41 54 234 239 184 252 209 42 61 224 41 121 216 224 132 228 209 249 155 92 60 207 163 113 208 84 138 220 112 15 169 88 227 106 99 73 66 151 60 187 143 128 218 45 2 79 123 170 137 2 89 191 245 147 131 177 86 45 166 150 18 246 63 174 32 233 207 154 254 64 107 223 210 239 82 53 65 
101 31 236 14 109 8 74 134 28 113 27 66 63 58 104 37 39 87 241 211 195 205 153 238 51 21 5 118 87 83 242 185 213 230 208 97 21 209 3 30 192 126 115 93 42 88 191 169 65 197 190 19 111 235 166 69 245 221 122 157 66 153 42 239 191 94 238 87 154 225 90 166 1 215 169 235 98 83 199 149 
108 181 156 121 92 51 174 104 97 109 250 188 252 201 253 248 31 102 243 149 196 70 214 253 39 0 172 207 32 105 208 215 30 202 130 85 71 11 106 251 49 105 118 46 193 37 151 12 173 187 224 172 26 21 139 42 223 64 87 229 231 36 204 142 52 188 226 105 2 77 128 93 146 33 102 56 8 65 244 190 
113 77 229 46 166 152 115 70 19 65 255 252 61 120 154 183 202 58 50 82 77 110 250 195 37 237 151 103 221 246 151 117 153 132 179 32 11 22 88 222 114 86 250 88 31 54 175 135 7 229 146 113 221 64 119 26 48 26 89 23 28 250 32 78 248 191 37 87 152 164 9 20 145 61 75 226 6 207 46 0 
41 12 162 131 136 82 252 202 244 7 234 98 6 192 140 174 180 131 56 7 59 74 81 164 202 35 148 200 77 92 83 203 247 61 32 106 245 213 110 240 213 90 158 174 28 155 253 64 144 252 59 42 177 137 196 60 226 154 154 83 197 135 23 228 73 233 30 214 228 243 70 50 133 87 112 35 176 61 73 197 
163 137 176 166 195 131 139 54 207 82 189 173 37 230 233 10 242 211 111 90 64 79 202 250 143 160 78 19 140 131 185 210 99 16 33 213 40 152 185 82 215 243 240 124 112 211 102 151 172 135 65 79 200 189 83 193 238 182 156 196 175 123 170 223 34 134 72 136 13 101 14 16 182 214 73 202 193 223 183 241 
59 4 236 233 152 221 53 247 71 146 87 126 239 228 121 47 104 184 146 11 176 238 75 158 168 212 109 144 13 188 71 30 49 54 161 243 250 103 160 222 156 2 58 238 157 97 162 108 140 70 58 56 8 177 128 5 126 98 129 248 45 115 79 37 230 156 240 113 20 145 86 81 126 4 210 238 79 199 141 39 
212 170 58 39 102 99 182 1 143 142 204 218 150 15 183 169 223 224 104 68 125 123 197 106 243 82 205 132 159 206 34 190 73 88 130 228 94 233 167 132 88 163 12 223 196 246 35 33 127 204 106 98 142 61 246 236 46 78 213 81 123 57 237 200 83 185 181 77 211 233 95 17 6 34 228 177 56 104 132 183 
195 180 48 157 54 73 105 40 46 86 49 140 198 97 242 146 7 128 14 44 124 76 225 81 140 122 91 63 44 177 168 178 93 3 101 147 255 162 236 138 110 68 47 13 126 178 162 94 53 16 186 243 234 80 117 213 33 90 130 113 203 97 101 87 71 240 66 106 192 27 168 0 86 116 246 122 151 29 206 196 
103 15 103 240 190 205 156 251 89 112 165 241 109 59 145 89 185 148 204 179 236 104 242 53 197 29 27 224 107 172 37 113 128 75 106 170 106 50 127 114 89 246 97 78 130 5 157 185 21 180 243 206 110 103 244 203 247 81 17 245 80 87 176 76 36 121 168 153 60 104 201 94 78 168 209 19 253 207 92 69 
105 41 17 94 47 124 153 27 35 14 24 252 125 213 67 100 217 126 182 166 203 29 8 170 76 167 124 17 143 167 210 94 177 178 189 153 207 34 115 0 251 145 232 40 144 143 32 44 107 32 41 89 132 118 49 218 97 112 66 228 247 90 29 232 97 101 176 63 253 113 186 221 106 135 1 131 226 156 184 240 
122 178 15 21 136 43 75 9 21 17 150 79 64 194 81 174 77 103 118 31 243 165 165 42 253 119 50 34 179 181 194 209 131 193 240 9 128 222 120 160 34 177 112 85 204 104 4 27 166 12 63 84 56 125 95 105 76 150 42 90 160 248 215 171 222 4 243 64 91 114 222 158 31 35 67 28 188 138 35 114 
