P2
80
60
255
97 74 115 134 227 219 67 52 14 246 175 55 182 60 110 138 82 35 10 207 254 121 155 0 213 26 149 9 14 87 40 215 127 142 174 90 216 111 171 247 72 123 225 228 224 40 241 1 78 65 14 152 109 238 66 148 30 247 197 163 251 173 226 213 81 11 237 25 240 138 209 62 83 27 163 217 136 224 208 163 
121 3 227 121 85 189 202 167 218 87 157 177 95 171 183 28 193 243 161 15 142 30 243 59 126 51 44 163 148 89 15 183 130 237 229 81 194 56 78 1 230 63 247 56 170 34 218 204 50 163 106 78 12 55 62 199 102 59 184 63 253 191 29 164 68 99 170 142 74 220 38 82 210 127 104 246 39 120 84 125 
247 71 1 74 201 126 173 129 13 183 127 106 61 231 93 77 199 51 10 78 127 173 87 88 124 73 125 15 206 163 28 54 150 247 75 36 8 228 95 178 190 104 188 39 252 167 93 179 75 231 107 217 247 87 127 101 240 19 5 102 141 232 54 155 171 90 69 240 175 108 24 116 238 168 52 81 239 233 62 69 
22 68 43 14 6 159 196 117 132 101 220 252 180 178 10 178 96 238 208 191 6 94 160 218 181 101 117 40 55 225 99 7 251 60 196 60 79 160 92 17 94 215 20 211 128 82 181 69 66 218 47 113 206 107 235 101 5 182 163 97 243 204 67 224 3 115 87 21 127 166 126 78 218 187 99 190 63 176 202 48 
101 40 186 34 214 207 125 200 118 12 208 220 21 149 142 168 221 66 148 67 143 139 63 203 38 89 36 176 117 168 105 139 49 126 96 13 236 169 201 122 128 216 69 56 115 128 128 236 190 18 133 168 147 7 200 175 137 50 96 70 194 242 241 20 123 168 196 152 145 3 152 45 118 160 158 31 22 117 35 80 
177 134 94 206 80 152 158 83 61 102 36 88 220 220 226 61 146 2 140 217 180 15 76 53 206 176 123 72 198 17 12 38 86 25 249 37 95 92 86 133 152 77 126 7 15 36 207 6 12 0 136 127 196 193 61 153 110 24 100 38 43 88 121 154 70 116 65 251 83 194 157 79 161 240 128 249 136 180 116 157 
242 213 62 66 97 40 186 188 135 249 44 83 39 224 78 147 16 132 195 90 73 75 143 77 178 110 204 106 178 239 41 60 94 238 159 55 165 223 239 171 251 37 93 220 4 136 45 190 199 16 98 207 214 194 61 145 1 182 254 39 9 28 97 148 204 146 104 23 125 104 213 42 85 65 246 167 72 143 36 133 
16 232 5 62 97 62 41 177 154 118 146 6 14 247 5 229 84 149 146 60 232 65 76 224 199 132 152 191 99 61 178 17 139 49 210 26 185 216 129 242 68 255 145 214 6 171 69 129 222 200 24 15 165 32 185 237 8 32 164 71 200 217 241 142 238 219 189 122 87 77 201 26 57 209 187 112 9 178 140 18 
57 108 192 28 34 119 159 175 18 33 171 147 97 35 41 13 29 147 14 162 50 20 248 146 24 129 126 134 159 124 78 238 62 120 155 145 133 177 91 204 10 149 220 6 124 28 37 206 55 150 166 50 245 98 193 195 5 31 154 199 158 201 194 37 184 71 41 117 0 234 235 208 89 95 101 195 103 146 33 253 
119 121 113 233 168 166 198 43 113 250 243 146 118 198 29 246 141 225 178 227 216 242 85 165 102 20 4 104 194 86 253 243 0 141 208 122 198 8 54 9 194 149 23 11 44 102 83 105 171 71 186 187 72 182 196 31 201 76 130 32 19 7 65 53 246 224 108 94 3 79 41 89 203 14 42 239 34 204 53 216 
18 224 139 49 240 51 37 227 148 144 183 100 5 255 147 144 25 65 68 247 125 178 124 14 107 176 98 166 119 253 195 29 0 165 168 218 196 230 197 125 20 151 76 96 38 144 165 198 11 148 133 94 199 61 224 122 8 101 68 138 254 149 18 93 212 242 24 157 74 45 11 14 243 239 100 12 143 77 27 211 
177 246 94 223 198 183 57 186 235 28 25 197 112 171 233 20 159 113 95 159 238 196 70 11 68 247 147 30 191 108 196 87 136 148 7 57 46 95 166 180 9 134 68 62 38 78 90 19 67 38 136 28 69 184 33 4 200 223 142 239 45 5 240 98 180 109 145 203 31 226 152 60 93 85 143 199 197 221 38 5 
214 195 157 12 37 86 137 137 137 247 208 166 223 24 127 165 198 133 13 20 108 254 143 71 4 110 81 30 109 38 111 165 145 182 213 249 237 202 51 6 206 165 95 150 190 161 176 46 163 72 195 58 14 127 47 17 61 54 180 71 71 58 80 202 6 140 203 88 36 203 53 196 225 51 208 138 11 172 239 52 
243 231 72 18 225 144 191 114 113 8 55 84 123 10 181 128 68 15 213 191 78 71 117 171 180 21 179 171 175 120 200 179 168 247 59 55 103 130 234 220 220 203 113 87 0 153 103 24 79 151 243 23 91 23 61 111 245 78 54 36 119 146 57 167 160 2 8 149 138 54 155 42 57 93 80 242 73 91 241 47 
59 138 54 43 70 61 149 150 8 175 218 222 66 55 102 107 18 83 18 21 35 246 202 86 155 112 173 204 77 127 48 174 170 247 189 151 243 148 90 50 40 107 196 80 68 117 160 212 44 197 20 5 231 217 120 199 152 139 119 37 175 44 59 208 235 50 22 238 142 18 42 211 90 184 155 26 206 31 181 157 
237 151 209 166 234 111 52 206 139 84 136 122 87 165 168 32 29 154 202 236 179 17 95 169 221 111 226 113 217 2 5 165 22 113 208 176 155 178 41 23 136 12 62 69 82 157 96 178 24 238 192 195 169 16 156 252 183 187 78 250 168 0 201 177 150 253 254 122 254 30 168 102 137 96 4 87 144 40 239 109 
128 76 153 115 71 168 156 15 163 18 84 83 38 15 246 200 58 78 186 130 66 102 1 76 149 75 248 64 187 248 90 93 136 190 191 126 129 210 252 80 22 128 14 172 40 153 35 241 103 137 41 192 249 166 113 179 249 43 228 130 67 97 73 21 18 134 29 18 237 214 120 77 110 75 134 183 73 147 18 51 
253 176 128 81 17 205 247 198 60 72 13 52 170 252 244 214 237 235 184 32 229 101 25 204 102 195 218 45 25 68 17 110 18 128 230 23 161 241 84 125 219 20 95 123 95 173 66 18 208 152 23 88 139 185 121 66 17 131 158 205 179 157 106 248 240 23 254 28 11 191 56 27 95 15 181 231 235 47 199 232 
46 33 3 22 94 58 8 51 88 127 39 163 122 161 22 252 93 223 34 19 85 238 179 90 218 165 116 186 80 233 159 112 177 90 225 110 147 66 104 178 23 66 141 47 53 68 160 166 228 45 89 12 174 205 98 236 28 148 134 73 133 131 8 132 194 231 140 194 60 74 48 82 226 42 59 150 125 247 246 231 
91 104 166 238 63 253 164 76 65 243 44 153 50 29 43 231 217 51 211 8 49 164 8 139 232 152 220 162 178 162 137 115 217 139 132 78 160 214 8 82 229 95 183 241 152 177 190 237 113 122 2 41 114 170 216 249 182 194 199 73 3 194 206 54 166 73 181 147 30 87 238 202 8 58 116 183 220 40 58 220 
188 232 15 34 78 69 227 20 61 49 132 90 247 15 132 76 106 96 14 9 63 91 164 18 0 99 143 109 175 199 130 230 85 80 234 209 247 41 115 236 134 143 58 203 57 220 55 80 221 84 77 193 146 86 152 227 125 76 95 170 230 248 65 255 76 142 16 15 230 30 217 173 26 208 163 76 93 116 92 0 
117 81 58 243 55 117 8 39 88 94 215 11 160 237 3 105 193 99 86 145 221 47 138 16 236 105 98 220 110 147 224 127 254 7 22 179 61 169 10 0 153 74 53 202 97 70 32 95 195 223 147 120 24 201 225 186 7 121 203 172 12 163 125 161 205 122 40 41 207 32 170 104 1 217 220 251 159 108 239 194 
215 220 111 202 14 49 52 169 81 21 178 121 246 210 27 35 91 12 111 165 250 122 28 207 129 146 104 172 107 135 24 2 149 46 219 123 90 71 243 232 176 162 160 44 190 168 203 65 126 194 119 228 216 37 108 95 193 124 166 242 220 242 6 99 23 36 197 42 210 107 36 189 255 10 223 133 194 194 225 231 
55 86 216 79 18 1 184 154 199 77 108 27 61 111 115 139 93 7 80 230 199 243 135 117 233 108 177 224 0 245 77 209 134 136 169 147 134 145 125 71 88 51 172 25 73 86 177 0 167 248 49 140 190 79 57 55 56 50 161 192 99 68 32 17 237 115 128 47 118 59 127 175 158 43 218 52 240 66 0 128 
74 123 4 162 67 180 194 194 109 190 230 153 210 206 68 232 21 228 29 134 113 243 59 35 202 15 219 171 87 252 237 236 85 179 29 223 76 94 57 38 107 59 91 67 106 246 108 244 139 244 120 70 29 14 78 216 31 59 246 210 103 174 119 7 226 226 106 207 96 29 226 10 122 219 39 219 250 178 188 145 
252 232 152 50 149 152 34 69 202 12 50 27 173 32 113 209 124 3 124 196 61 27 132 113 72 191 176 243 88 78 176 139 137 26 16 207 218 179 190 239 156 254 78 139 100 182 114 173 243 187 48 85 147 184 81 32 114 174 128 136 116 202 174 63 0 30 41 30 65 175 237 47 102 91 170 88 86 28 12 15 
188 0 201 175 129 225 216 131 184 152 16 227 81 108 52 213 251 218 138 116 6 105 220 87 95 122 86 178 49 158 195 186 164 233 178 204 64 204 245 208 109 228 8 98 154 89 207 61 125 49 62 94 253 48 97 116 54 171 64 7 31 234 39 231 86 131 208 87 134 54 237 126 244 204 148 148 170 120 5 80 
9 4 155 177 53 131 37 138 82 207 41 163 51 159 251 60 90 25 86 85 27 154 209 186 64 241 150 66 185 120 238 179 217 161 7 198 147 97 143 229 73 13 147 2 159 27 37 36 214 77 83 16 54 197 220 168 250 134 54 104 73 214 93 150 183 13 226 144 209 83 209 207 45 188 214 6 136 82 42 248 
197 22 140 166 179 167 159 165 41 37 250 50 210 102 248 240 123 60 13 78 156 238 245 37 16 206 213 26 122 85 200 88 226 89 102 31 253 201 178 154 168 136 2 139 24 204 80 76 49 151 131 153 154 185 35 178 251 238 3 73 234 130 89 196 16 12 200 80 251 183 219 65 31 161 111 73 140 197 145 252 
178 91 142 59 154 229 149 107 23 117 247 185 116 68 216 115 135 165 168 244 206 129 97 44 168 191 162 214 46 42 28 234 32 85 220 203 100 239 239 170 173 21 222 165 176 29 127 30 116 90 166 200 59 85 41 243 139 7 194 141 194 130 70 91 209 158 181 239 134 20 169 210 246 154 148 109 124 116 96 37 
128 202 23 218 177 223 79 119 108 213 219 235 251 81 248 184 66 30 89 39 155 66 184 124 243 55 95 19 171 204 64 222 184 31 251 189 128 55 122 67 4 200 126 77 187 141 177 9 189 206 193 209 164 126 241 114 178 124 176 75 187 122 178 212 77 1 7 0 148 19 185 6 141 246 97 5 231 151 69 14 
149 202 111 123 226 50 16 75 186 166 243 151 118 253 50 69 244 66 77 52 20 107 21 72 234 163 250 198 21 144 70 110 182 44 193 234 161 160 65 0 41 173 150 10 27 28 116 64 96 183 175 65 203 74 118 107 138 48 227 124 201 231 132 250 244 41 68 226 43 26 63 41 87 239 255 119 112 170 163 187 
62 115 59 103 137 97 6 192 72 61 217 100 134 188 236 232 207 89 224 99 240 221 196 143 9 16 23 234 118 27 109 68 253 35 21 54 219 137 94 27 21 103 227 231 165 177 108 122 239 153 222 231 15 142 195 30 114 127 216 152 63 196 51 102 27 60 121 59 177 28 166 224 148 237 226 155 237 61 236 13 
136 179 217 248 84 99 20 90 144 124 46 56 38 38 81 242 156 171 72 188 55 242 207 59 91 27 218 247 160 172 87 38 30 217 237 86 119 104 43 103 23 172 187 100 46 24 4 181 228 236 202 38 67 123 70 77 91 140 58 191 34 78 120 173 137 109 104 75 78 187 255 153 2 239 189 2 204 9 18 84 
18 45 177 172 63 84 129 224 237 240 109 227 108 71 217 175 14 237 186 6 53 87 237 187 202 185 178 250 152 158 188 25 254 199 111 93 140 202 185 81 252 232 8 13 12 182 234 10 188 248 202 239 103 64 72 232 71 215 188 242 205 90 86 182 102 161 90 88 27 99 7 207 144 32 147 58 236 192 214 187 
179 119 241 153 157 221 100 26 132 111 80 50 227 4 129 178 103 174 4 87 217 90 134 214 193 30 46 66 96 166 133 103 105 78 234 136 5 108 9 7 167 54 226 121 31 221 208 155 125 72 35 186 56 255 187 255 37 185 48 34 175 25 2 9 219 14 84 209 154 97 170 191 219 232 56 148 237 230 54 214 
137 67 191 103 54 147 134 108 202 195 171 138 185 158 58 168 177 119 194 164 77 99 201 194 66 203 135 57 113 202 61 73 115 224 204 98 17 115 243 229 51 162 198 236 179 231 209 163 181 18 109 188 218 9 197 107 249 224 17 116 182 198 122 204 152 55 55 77 9 12 85 246 202 210 177 63 84 247 171 0 
114 15 150 57 75 60 239 145 165 80 102 242 127 99 232 12 39 140 175 64 221 226 27 204 192 182 166 241 166 130 108 146 66 24 215 198 34 128 213 242 14 25 53 199 57 111 149 207 208 70 105 222 91 100 162 16 128 149 99 173 154 94 88 151 164 244 38 166 11 232 106 125 203 11 221 99 106 10 13 133 
178 115 178 82 177 60 76 171 166 150 148 137 48 75 76 206 143 64 68 109 40 207 172 1 142 113 173 124 134 88 189 123 146 93 58 190 115 219 193 55 58 221 202 69 79 62 2 140 254 25 232 233 2 40 41 16 147 120 64 68 119 12 210 180 144 206 82 244 107 120 97 32 85 200 109 22 108 165 27 85 
148 186 59 157 96 254 155 48 152 90 185 241 1 241 177 72 49 49 36 137 199 80 248 224 138 146 187 208 245 218 50 179 167 0 144 203 63 119 210 87 33 178 207 47 161 221 100 113 30 86 81 176 125 117 60 46 147 23 95 158 247 123 95 241 186 222 198 174 142 102 176 75 208 215 27 22 253 138 94 41 
80 231 133 135 219 29 37 254 135 184 52 238 224 82 202 208 155 71 157 96 239 101 184 26 144 16 138 227 173 87 186 100 136 119 95 155 25 78 243 24 71 74 172 107 46 56 149 68 247 147 2 200 194 186 208 142 35 157 253 214 170 88 5 110 0 62 157 194 25 220 55 170 236 98 215 90 70 6 189 15 
177 238 190 38 70 203 15 157 139 80 105 61 65 147 154 100 236 72 97 124 99 184 79 37 215 23 218 144 214 170 41 94 196 82 26 166 79 229 7 142 90 229 185 251 227 18 30 225 99 79 48 167 34 103 154 35 8 36 153 180 106 70 137 238 72 205 190 105 135 31 1 27 170 135 92 219 127 140 137 112 
25 237 175 78 15 61 236 236 20 10 28 42 143 201 244 134 99 70 127 91 20 226 164 243 158 87 27 219 87 122 54 242 140 125 20 192 39 53 179 142 5 227 94 180 104 243 4 184 9 76 233 164 80 145 61 29 37 241 17 190 231 240 46 54 9 174 76 162 195 60 44 167 112 98 19 215 5 114 35 202 
24 60 210 125 156 98 1 169 79 37 214 151 23 85 68 46 108 31 47 187 227 103 127 197 182 249 11 142 225 56 189 189 61 168 138 178 46 230 177 1 81 137 190 152 184 106 223 12 49 215 245 141 14 49 252 12 1 107 52 255 118 252 147 84 0 179 4 14 67 248 233 6 247 243 111 88 100 29 32 252 
229 212 164 137 40 173 133 92 239 228 23 2 156 124 100 49 228 196 206 94 149 57 192 247 13 239 199 234 223 20 166 253 49 2 214 117 62 91 247 147 149 194 181 93 131 155 151 59 48 94 72 227 235 2 206 25 41 236 45 188 180 255 254 167 141 46 126 227 249 40 129 166 74 148 226 170 204 88 219 78 
56 222 164 36 53 87 93 53 79 126 213 36 108 164 222 188 202 47 194 63 248 13 156 30 106 146 4 234 30 89 149 255 233 152 209 100 203 111 218 104 234 180 128 120 161 177 50 170 38 93 64 135 75 146 249 136 220 185 34 208 11 111 66 158 132 161 81 247 138 166 51 10 188 207 150 206 231 239 165 84 
65 137 16 10 251 152 89 17 236 172 146 53 152 13 255 85 51 224 254 231 182 144 2 191 162 214 20 60 23 232 78 75 155 62 221 222 51 131 255 47 44 33 136 116 50 239 100 108 35 129 152 78 32 152 74 156 101 54 69 83 96 202 127 0 133 12 34 49 104 233 150 205 151 32 6 200 177 242 240 185 
172 71 225 17 18 122 11 113 46 210 3 138 254 76 167 5 131 157 81 176 141 88 69 46 173 21 10 124 211 38 45 177 20 83 231 151 23 28 54 126 176 12 214 226 29 140 165 84 115 199 246 51 178 16 66 164 250 84 209 95 121 22 186 183 115 118 220 122 248 186 55 14 202 228 46 93 223 212 60 8 
198 115 172 6 78 192 21 97 90 17 68 76 44 170 55 74 32 13 112 223 137 188 82 55 101 166 8 66 95 210 134 194 165 173 15 196 11 148 216 19 3 5 50 15 226 12 205 133 248 87 137 234 252 131 83 145 68 17 156 75 78 152 220 250 32 156 163 153 244 157 196 49 179 214 7 61 200 45 243 5 
51 8 113 174 104 36 216 22 235 243 185 220 221 232 52 240 14 75 99 43 217 144 169 250 184 69 109 109 18 22 214 25 188 116 253 88 190 69 22 87 197 61 23 138 217 70 85 245 194 132 151 199 174 116 42 215 139 158 102 119 158 105 47 28 204 126 241 104 39 77 149 1 40 37 230 206 45 104 1 0 
0 208 67 186 198 50 176 195 215 53 103 169 114 159 130 53 159 30 109 31 73 19 138 195 76 23 120 95 215 203 120 73 177 94 117 175 228 91 45 79 69 55 250 187 95 32 185 143 60 135 94 60 145 248 150 188 204 164 29 222 130 55 40 132 190 109 116 103 175 223 122 219 60 160 60 24 243 16 60 126 
110 16 178 170 226 23 132 152 141 243 42 38 153 230 21 4 12 22 37 7 209 110 105 186 15 180 228 207 61 65 222 252 135 223 56 198 255 88 79 171 14 39 234 61 179 216 167 163 13 138 123 4 170 33 181 89 33 156 15 42 116 25 65 178 190 248 164 243 163 183 92 37 18 229 134 28 202 208 249 17 
59 161 223 182 214 148 123 176 119 147 245 217 222 140 179 110 210 77 87 121 207 229 115 168 172 205 254 179 183 108 239 213 184 100 143 212 106 54 249 23 232 176 78 87 133 178 26 84 153 197 97 40 189 251 238 159 249 168 66 40 100 104 191 212 178 249 126 232 55 96 89 126 213 232 169 180 101 106 43 246 
147 112 114 252 220 206 102 211 189 202 10 231 188 137 184 37 13 169 173 236 198 246 190 52 238 221 158 39 225 13 71 185 147 226 237 179 37 250 27 191 87 137 93 227 86 233 10 253 90 220 159 182 167 13 60 108 97 72 184 150 187 232 195 33 251 5 183 71 224 210 103 96 217 188 162 39 149 192 183 251 
96 254 97 101 217 234 180 245 184 153 163 0 103 6 166 35 171 20 98 213 29 244 46 66 152 98 93 209 55 74 190 194 67 69 230 117 177 131 185 206 151 143 177 56 41 113 106 206 175 185 237 33 7 231 58 34 26 175 152 167 226 169 34 28 98 216 23 203 39 153 102 71 206 108 8 124 254 38 135 221 
60 132 36 226 190 12 240 213 32 14 104 52 58 190 78 1 11 229 177 245 248 132 246 219 114 199 1 237 137 183 12 197 224 60 161 78 149 228 71 65 140 247 74 171 158 80 61 253 61 126 147 38 245 182 240 49 95 5 153 237 248 81 150 40 99 156 241 228 146 28 170 30 89 141 205 158 238 88 51 76 
231 10 65 87 112 172 33 218 204 167 15 78 149 189 31 69 75 126 33 139 149 247 121 232 145 87 202 136 186 254 244 148 215 132 218 129 131 45 133 140 192 76 14 233 32 30 221 33 251 145 191 37 55 121 63 138 37 190 220 131 231 245 140 254 238 237 18 123 6 170 157 15 117 85 69 32 167 152 206 67 
145 61 245 182 119 62 65 15 118 88 78 50 147 10 63 123 74 174 8 202 142 14 255 144 202 204 38 115 93 38 181 16 6 143 80 82 210 166 133 224 251 3 246 45 73 92 201 149 103 133 192 29 171 202 156 69 229 30 45 121 156 168 159 150 68 38 129 10 248 168 3 15 28 37 235 122 138 110 205 167 
230 34 112 166 195 120 10 82 171 191 178 211 197 90 137 128 167 68 204 52 83 59 122 142 84 244 204 246 121 201 18 218 183 111 118 181 166 42 23 80 33 253 15 202 136 102 209 221 37 16 111 230 43 11 58 44 222 10 74 232 87 20 100 147 106 69 193 239 46 10 49 81 165 88 45 178 7 112 56 252 
152 225 35 250 148 68 186 88 90 159 47 180 61 172 85 68 174 252 220 143 173 86 148 139 190 116 243 229 225 178 107 241 33 38 3 196 30 152 189 251 43 242 70 158 107 137 104 191 130 215 203 49 66 36 128 240 239 138 208 179 130 235 217 36 119 83 111 65 168 55 201 102 170 43 123 134 60 118 44 0 
